<?xml version="1.0" encoding="utf-8"?>
<!-- Generator: Adobe Illustrator 27.9.0, SVG Export Plug-In . SVG Version: 6.00 Build 0)  -->
<svg version="1.1" id="Capa_1" xmlns="http://www.w3.org/2000/svg" xmlns:xlink="http://www.w3.org/1999/xlink" x="0px" y="0px"
	 viewBox="0 0 92 85" style="enable-background:new 0 0 92 85;" xml:space="preserve">
<style type="text/css">
	.st0{fill:#101011;}
</style>
<g>
	<path class="st0" d="M40.7,32.6h9.8v23.8h-9.8V32.6z M40.7,61.1h9.8v9.5h-9.8V61.1z"/>
	<path class="st0" d="M54.2,5c-1.7-3.1-5-5-8.6-5C42,0,38.7,1.9,37,5L1.1,70.9C0.4,72.3,0,74,0,75.6s0.5,3.2,1.4,4.6
		s2.1,2.6,3.5,3.4c1.5,0.8,3.1,1.2,4.8,1.2h71.6c3.5,0,6.6-1.7,8.4-4.6c0.9-1.4,1.4-3,1.4-4.6s-0.3-3.3-1.1-4.7L54.2,5z M9.8,75.3
		L45.5,9.5l35.8,65.8H9.8z"/>
</g>
</svg>
