<?xml version="1.0" encoding="utf-8"?>
<!-- Generator: Adobe Illustrator 27.9.0, SVG Export Plug-In . SVG Version: 6.00 Build 0)  -->
<svg version="1.1" id="Capa_1" xmlns="http://www.w3.org/2000/svg" xmlns:xlink="http://www.w3.org/1999/xlink" x="0px" y="0px"
	 viewBox="0 0 119 121" style="enable-background:new 0 0 119 121;" xml:space="preserve">
<style type="text/css">
	.st0{fill:#101011;}
</style>
<path class="st0" d="M99.2,20.4H19.8c-5.3,0-9.7,4.4-9.7,9.8v60.5c0,5.4,4.3,9.8,9.7,9.8h79.3c5.3,0,9.7-4.4,9.7-9.8V30.2
	C108.8,24.8,104.5,20.4,99.2,20.4z M19.6,30h79.8v2.9L99.3,33L59.5,64.5l-0.2-0.1L19.6,32.9V30z M19.6,91V45.1l37,29.3
	c0.8,0.7,1.8,1,2.9,1c1,0,2.1-0.4,2.9-1l37-29.3V91H19.6z"/>
</svg>
