<?xml version="1.0" encoding="utf-8"?>
<!-- Generator: Adobe Illustrator 27.9.0, SVG Export Plug-In . SVG Version: 6.00 Build 0)  -->
<svg version="1.1" id="Capa_1" xmlns="http://www.w3.org/2000/svg" xmlns:xlink="http://www.w3.org/1999/xlink" x="0px" y="0px"
	 viewBox="0 0 119 118" style="enable-background:new 0 0 119 118;" xml:space="preserve">
<style type="text/css">
	.st0{fill:#101011;}
</style>
<g>
	<path class="st0" d="M59.5,35.8c-6.2,0-12.1,2.4-16.5,6.8C38.6,47,36.1,52.8,36.1,59c0,6.1,2.4,11.9,6.8,16.3
		c4.4,4.4,10.3,6.8,16.5,6.8s12.1-2.4,16.5-6.8c4.4-4.4,6.8-10.2,6.8-16.4c0-6.2-2.4-12-6.8-16.4C71.7,38.2,65.7,35.8,59.5,35.8z
		 M74,59c0,3.8-1.6,7.5-4.3,10.1c-2.8,2.7-6.5,4.2-10.2,4.2c-3.8,0-7.4-1.5-10.2-4.2c-2.8-2.8-4.3-6.3-4.3-10.1
		c0-3.8,1.6-7.5,4.3-10.1c2.6-2.6,6.4-4.2,10.2-4.2c3.7,0,7.4,1.5,10.2,4.2C72.4,51.7,74,55.3,74,59z"/>
	<circle class="st0" cx="83.3" cy="35.3" r="5.5"/>
	<path class="st0" d="M104.5,40.8c-0.3-4-1.1-7.7-2.3-11l0,0c-1.1-2.9-2.9-5.7-5.2-8c-2.3-2.3-5.1-4.1-8.1-5.2
		c-3.5-1.3-7.2-2-10.9-2.1l-0.9,0c-4.1-0.2-6.2-0.3-17.5-0.3c-12.2,0-13.7,0-18.4,0.3c-3.8,0.1-7.6,0.8-10.9,2.1
		c-3,1.1-5.7,2.9-8.1,5.2c-2.3,2.3-4.1,5.1-5.2,8c-1.3,3.4-2,7.1-2.1,10.8l0,0.9c-0.2,4.1-0.3,6.1-0.3,17.3c0,12,0,13.5,0.3,18.2
		C15,80.7,15.7,84.4,17,88c1.1,3,3,5.7,5.3,8c2.6,2.4,5.2,4.1,8.1,5.2c3.7,1.4,7.4,2.1,10.9,2.2l0.9,0c4.1,0.2,6.2,0.3,17.5,0.3
		c12.2,0,13.7,0,18.4-0.3c3.8-0.1,7.6-0.8,10.9-2.1c3-1.1,5.7-2.9,8.1-5.2c2.2-2.2,4.1-5,5.3-8c1.3-3.4,2-7.1,2.1-10.8l0-0.9
		c0.2-4.1,0.3-6.1,0.3-17.3C104.9,47,104.9,45.5,104.5,40.8z M95.3,76.8L95.3,76.8c0,2.5-0.5,5.2-1.5,8.2c-0.6,1.7-1.7,3.3-3.2,4.9
		c-1.3,1.4-3,2.5-4.9,3.2c-2.6,1-5.4,1.5-8.2,1.5l-1,0c-3.9,0.2-5.9,0.3-17,0.3c-12,0-13.3,0-18.1-0.3c-2.5,0-5.2-0.5-8.1-1.5
		c-1.7-0.6-3.5-1.8-5-3.2c-1.3-1.2-2.4-2.9-3.3-4.9c-1-2.5-1.5-5.2-1.5-8.1l0-1c-0.2-3.9-0.3-5.9-0.3-16.9c0-11.9,0-13.2,0.3-18
		c0-2.5,0.5-5.2,1.5-8.1c1.4-3.7,4.4-6.7,8.2-8.1c2.7-1,5.3-1.5,8.2-1.5l1,0c3.9-0.2,5.9-0.3,17-0.3c12,0,13.3,0,18.1,0.3
		c2.5,0,5.2,0.5,8.1,1.5c1.8,0.7,3.5,1.8,4.9,3.2c1.4,1.3,2.5,3,3.2,4.9c1,2.5,1.5,5.3,1.5,8.1l0,1c0.2,3.9,0.3,5.9,0.3,16.9
		C95.5,70.8,95.6,72.1,95.3,76.8z"/>
</g>
</svg>
