<?xml version="1.0" encoding="utf-8"?>
<!-- Generator: Adobe Illustrator 27.9.0, SVG Export Plug-In . SVG Version: 6.00 Build 0)  -->
<svg version="1.1" id="Capa_1" xmlns="http://www.w3.org/2000/svg" xmlns:xlink="http://www.w3.org/1999/xlink" x="0px" y="0px"
	 viewBox="0 0 110 110" style="enable-background:new 0 0 110 110;" xml:space="preserve">
<style type="text/css">
	.st0{fill:#101011;}
</style>
<path class="st0" d="M87.3,33.9c1.7-1.7,2.7-4,2.7-6.5s-1-4.7-2.7-6.5L80,13.7C78.3,12,76,11,73.5,11c-2.4,0-4.7,1-6.5,2.7
	L18.3,62.3v20.2h20.2L87.3,33.9z M73.5,20.2l7.3,7.3l-7.3,7.3l-7.3-7.3L73.5,20.2z M27.5,73.1v-7l32.3-32.2l7.3,7.3L34.8,73.1H27.5z
	 M18.3,91.4h73.3v9.4H18.3V91.4z"/>
</svg>
