<?xml version="1.0" encoding="utf-8"?>
<!-- Generator: Adobe Illustrator 27.9.0, SVG Export Plug-In . SVG Version: 6.00 Build 0)  -->
<svg version="1.1" id="Capa_1" xmlns="http://www.w3.org/2000/svg" xmlns:xlink="http://www.w3.org/1999/xlink" x="0px" y="0px"
	 viewBox="0 0 94 94" style="enable-background:new 0 0 94 94;" xml:space="preserve">
<style type="text/css">
	.st0{fill:#101011;}
</style>
<path class="st0" d="M75.6,64.9H19.3c-2.6,0-4.6,2.1-4.6,4.7c0,2.6,2.1,4.7,4.6,4.7h56.3c2.6,0,4.6-2.1,4.6-4.7
	C80.2,67,78.1,64.9,75.6,64.9z"/>
<path class="st0" d="M75.6,42.3H19.3c-2.6,0-4.6,2.1-4.6,4.7c0,2.6,2.1,4.7,4.6,4.7h56.3c2.6,0,4.6-2.1,4.6-4.7
	C80.2,44.4,78.1,42.3,75.6,42.3z"/>
<path class="st0" d="M19.3,29.1h56.3c2.6,0,4.6-2.1,4.6-4.7s-2.1-4.7-4.6-4.7H19.3c-2.6,0-4.6,2.1-4.6,4.7S16.7,29.1,19.3,29.1z"/>
</svg>
