<?xml version="1.0" encoding="UTF-8"?>
<svg id="Capa_1" data-name="Capa 1" xmlns="http://www.w3.org/2000/svg" viewBox="0 0 30 12.14">
  <g>
    <path d="m5.19,8.14c-.23-.12-.4-.29-.53-.51-.13-.22-.19-.47-.19-.76v-1.44c0-.29.06-.54.19-.76.13-.22.3-.39.53-.51.23-.12.49-.18.78-.18s.56.06.79.18c.23.12.4.29.53.51.13.22.19.47.19.76v1.44c0,.29-.06.54-.19.76-.13.22-.3.39-.53.51-.23.12-.49.18-.79.18s-.56-.06-.78-.18Zm1.45-.58c.17-.17.25-.39.25-.67v-1.47c0-.28-.08-.51-.25-.68-.17-.17-.39-.26-.67-.26s-.5.09-.66.26c-.17.17-.25.4-.25.68v1.47c0,.28.08.5.25.67.17.17.39.25.66.25s.5-.08.67-.25Z" fill="#f5f5f5"/>
    <path d="m16.13,4.02h.46s.06.02.06.06v4.12s-.02.06-.06.06h-.46s-.06-.02-.06-.06v-3.11s0-.02-.01-.02c0,0-.01,0-.02.01l-.87,1.32s-.04.04-.07.04h-.23s-.05-.01-.07-.04l-.87-1.31s-.01-.02-.02-.01c0,0-.01.01-.01.02v3.09s-.02.06-.06.06h-.46s-.06-.02-.06-.06v-4.12s.02-.06.06-.06h.46s.06.01.07.04l1.06,1.59s.01,0,.02,0,.01,0,.02,0l1.06-1.59s.04-.04.07-.04Z" fill="#f5f5f5"/>
    <path d="m25.09,8.22l-.22-.71s-.01-.02-.02-.02h-1.7s-.02,0-.02.02l-.22.71s-.04.05-.07.05h-.49s-.06-.02-.05-.07l1.33-4.13s.04-.05.07-.05h.61s.06.02.07.05l1.34,4.13v.02s-.01.04-.05.04h-.5s-.06-.02-.07-.05Zm-1.82-1.2s.01,0,.02,0h1.39s.02,0,.02,0c0,0,0-.01,0-.02l-.7-2.25s-.01-.01-.02-.01-.01,0-.02.01l-.7,2.25s0,.02,0,.02Z" fill="#f5f5f5"/>
  </g>
  <rect x="8.44" y="10.42" width="4.2" height=".25" transform="translate(-4.37 10.54) rotate(-45)" fill="#f5f5f5"/>
  <rect x="17.37" y="10.42" width="4.2" height=".25" transform="translate(-1.75 16.86) rotate(-45)" fill="#f5f5f5"/>
  <path d="m9.17,12.14H0V2.98h9.17v9.17Zm-8.92-.25h8.66V3.23H.25v8.66Z" fill="#f5f5f5"/>
  <path d="m18.1,12.14h-9.17V2.98h9.17v9.17Zm-8.92-.25h8.66V3.23h-8.66v8.66Z" fill="#f5f5f5"/>
  <path d="m27.03,12.14h-9.17V2.98h9.17v9.17Zm-8.92-.25h8.66V3.23h-8.66v8.66Z" fill="#f5f5f5"/>
  <path d="m12.14,9.17H2.97V0h9.17v9.17Zm-8.92-.25h8.66V.26H3.23v8.66Z" fill="#f5f5f5"/>
  <path d="m21.07,9.17h-9.17V0h9.17v9.17Zm-8.92-.25h8.66V.26h-8.66v8.66Z" fill="#f5f5f5"/>
  <path d="m30,9.17h-9.17V0h9.17v9.17Zm-8.92-.25h8.66V.26h-8.66v8.66Z" fill="#f5f5f5"/>
  <rect x="-.52" y="1.46" width="4.2" height=".25" transform="translate(-.66 1.58) rotate(-45)" fill="#f5f5f5"/>
  <rect x="8.44" y="1.49" width="4.2" height=".25" transform="translate(1.95 7.93) rotate(-45)" fill="#f5f5f5"/>
  <rect x="17.37" y="1.49" width="4.2" height=".25" transform="translate(4.56 14.24) rotate(-45)" fill="#f5f5f5"/>
  <polygon points="27.03 2.98 30 0 30 9.17 27.03 12.14 27.03 2.98" fill="#f5f5f5"/>
</svg>