<?xml version="1.0" encoding="UTF-8"?>
<svg id="Capa_1" data-name="Capa 1" xmlns="http://www.w3.org/2000/svg" viewBox="0 0 30 12.14">
  <path d="m7.29,4.67c-.13-.22-.3-.39-.53-.51-.23-.12-.49-.18-.79-.18s-.56.06-.78.18c-.23.12-.4.29-.53.51-.13.22-.19.47-.19.76v1.44c0,.29.06.54.19.76.13.22.3.39.53.51.23.12.49.18.78.18s.56-.06.79-.18c.23-.12.4-.29.53-.51.13-.22.19-.47.19-.76v-1.44c0-.29-.06-.54-.19-.76Zm-.39,2.23c0,.28-.08.5-.25.67-.17.17-.39.25-.67.25s-.5-.08-.66-.25c-.17-.17-.25-.39-.25-.67v-1.47c0-.28.08-.51.25-.68.17-.17.39-.26.66-.26s.5.09.67.26c.17.17.25.4.25.68v1.47Z" fill="#101010"/>
  <path d="m16.59,4.02h-.46s-.05.01-.07.04l-1.06,1.59s-.01,0-.02,0-.01,0-.02,0l-1.06-1.59s-.04-.04-.07-.04h-.46s-.06.02-.06.06v4.12s.02.06.06.06h.46s.06-.02.06-.06v-3.09s0-.02.01-.02c0,0,.01,0,.02.01l.87,1.31s.04.04.07.04h.23s.06-.01.07-.04l.87-1.32s.01-.02.02-.01c0,0,.01.01.01.02v3.11s.02.06.06.06h.46s.06-.02.06-.06v-4.12s-.02-.06-.06-.06Z" fill="#101010"/>
  <path d="m25.71,8.2l-1.34-4.13s-.04-.05-.07-.05h-.61s-.06.02-.07.05l-1.33,4.13s0,.07.05.07h.49s.06-.02.07-.05l.22-.71s.01-.02.02-.02h1.7s.02,0,.02.02l.22.71s.04.05.07.05h.5s.05-.01.05-.04v-.02Zm-1-1.18s-.01,0-.02,0h-1.39s-.02,0-.02,0c0,0,0-.01,0-.02l.7-2.25s.01-.01.02-.01.01,0,.02.01l.7,2.25s0,.02,0,.02Z" fill="#101010"/>
  <path d="m30,9.17V0h0s0,0,0,0H2.97S.01,2.98.01,2.98h-.01v9.17h27.03s2.97-2.97,2.97-2.97h0ZM3.23,3.23h5.69v5.69H3.23V3.23Zm8.66-.25h-2.53L11.89.45v2.53Zm0,.25v5.69h-2.71V3.23h2.71Zm-2.71,5.94h2.55l-2.55,2.55v-2.55Zm2.97-5.94h5.69v5.69h-5.69V3.23Zm8.66-.25h-2.53l2.53-2.53v2.53Zm0,.25v5.69h-2.71V3.23h2.71Zm-2.71,5.94h2.55l-2.55,2.55v-2.55Zm2.97-5.94h5.69v5.69h-5.69V3.23ZM29.74.26l-2.72,2.73h0s-5.94,0-5.94,0V.26h8.66Zm-9.09,0l-2.72,2.72h-5.78V.26h8.5ZM11.72.26l-2.72,2.72H3.23V.26h8.5Zm-8.75.12v2.6H.37L2.97.37ZM.25,11.89V3.23h2.72v5.94h5.94v2.72H.25Zm9.12,0l2.72-2.72h5.75v2.72h-8.47Zm8.93,0l2.72-2.72h5.75v2.72h-8.47Z" fill="#101010"/>
</svg>