<?xml version="1.0" encoding="utf-8"?>
<!-- Generator: Adobe Illustrator 27.9.0, SVG Export Plug-In . SVG Version: 6.00 Build 0)  -->
<svg version="1.1" id="Capa_1" xmlns="http://www.w3.org/2000/svg" xmlns:xlink="http://www.w3.org/1999/xlink" x="0px" y="0px"
	 viewBox="0 0 249 672" style="enable-background:new 0 0 249 672;" xml:space="preserve">
<style type="text/css">
	.st0{fill-rule:evenodd;clip-rule:evenodd;fill:#FFFFFF;}
	.st1{fill-rule:evenodd;clip-rule:evenodd;fill:#101011;}
</style>
<g id="Introduction">
	<g id="variations-standing" transform="translate(-992.000000, -1708.000000)">
		<g id="a-person_x2F_standing" transform="translate(973.000000, 1658.000000)">
			<g id="pose_x2F_standing_x2F_blazer-3" transform="translate(-28.736217, 150.264357)">
				<path id="_xD83C__xDFA8_-Background" class="st0" d="M91.2,120.9c-6.4,7.4-5.8,9.5-2.4,17c7.5,17.4,18.2,35.1,30.4,51.3
					c-0.8-36.3-1.5-72.7-2.7-109.3C109.2,94.1,101.5,106.8,91.2,120.9 M90,569c-4-0.4-32.2,0.7-24.6-7.6c-2.3-5.1,4.2-9.3,8.2-13.2
					c3.7-3.6,7.4-7.6,11.3-12.1c3.6-4.3,7.6-9.3,10.2-15.2c0.6-0.9,1.2-1.6,1.7-1.9l0.3-0.2l0.2-0.3c2.2-3.5,4-7.2,6-10.7
					c-4.9-1.8-9.4-3.5-14.9-6c7.8-46.1,19.6-91.1,27.2-137.3c4.6-40.3,7.1-80.9,17.7-120.5l1.4,0.1l0.8-2.6c-1.1,0-3.4-0.1-4.5-0.1
					l0.3,1.3c-5-0.6-10-2-14.9-3.2c-2.5-0.3-5-2.1-4.1-5.1c0.3-4.3,1.2-8.5,1.6-12.9c-1.6-1.1-3.2-2.3-4.8-3.6
					c-4.2,2-9.2,8.3-13.8,6.7c-10.6-14.3-19.6-31.5-27.7-45.2C48,147.5,41.8,127.7,62,94.6c17.4-27.7,36.2-71.8,71.1-78.7
					c3.9-0.7,8-0.8,11.8-2.5c0.2-2.6,1.5-4,2.4-4.1c2.3-0.5,4.8-1.3,7-1.3c0.8-0.3,1.7-0.1,2.5,0.1c2.2-4.5,2-10.2,4.5-14.4
					c0.1-3.2,1.1-6.7,10.9-7.4c6.7-0.6,16.2-1.1,21.5,1.8c3.7,3,3.8,9.8,3.3,14.5c-0.5,3.5-0.3,7.6,2.5,11.7
					c7.8-2.4,13.2,2.7,18.1,12.2c20.4,2.8,24.9,4.4,32.8,24.6c3.8,8.8,7.7,18.2,10.7,27.8c3.9,11.8,4.3,24.1,8.1,35.9
					c10.4,26.1,21,42.9,24.4,73.3c1.6,13.4,0.7,20.1-0.9,22.1c-4.4-1.3-10.1-2.2-14.7-2.8l5,3.8c-4.2,19,7.9,73.3-24.9,69.1
					c-0.3-0.7,0.2-4.6,0.4-6.2c-0.9,0.1-2.6,0.1-3.4,0c-1.6,4.5-3.9,8.6-5.4,13.1c-0.7,2.8-1.7,5.6-2.6,8.3
					c-20.6,69.5-24.7,136.4-15.5,206.2l-0.4,0.2L231,502l-0.3,0.1c-0.7,0.9-1.6,0.9-3,0.9c-9,0.3-17,0.7-24.3,0.9
					c0.8,3.9,0.3,8-0.1,12c4.3-0.3,8.2,1.4,12.1,3.5c7.5,3.7,14.9,7.5,22.2,11.7c7.2,4.6,18.8,8.5,13,16.8l1.7,0.7
					c0.1,0,0.1,0,0.1,0.1c0.2,0.7-2.1,3.6-2.7,3.6c-15.8,0.7-29.3-3-49.5-6.8c-4.6-1.7-27.9-4.5-28-8.9c0.1-1.4,1.5-1.3,2.5-1.5
					c-3-15,7.1-16.2,8.5-29.8c-2,0.4-4.1,0.7-6.2,0.1c-1.8-29,1.1-58.8-2.1-88.1l-3.2-0.4c-10.8,31.9-22.1,64.6-30.7,97.7
					c-0.2,0.7-1,0.2-1.3,0c-5.6-0.1-11.3-0.7-16.8-1.7c-0.1,3.3-0.3,6.6-0.4,9.8l0.9,0.5c0.6,0.8,0.3,4.4,0.2,5.9
					c-0.1,1.6-0.2,2.7,0,3.8c1.8,3.5-4.3,11.1-7.5,15.3C108.8,557.4,103,570.8,90,569"/>
				<path id="_xD83D__xDD8D_-Ink" class="st1" d="M159.6-6.3c1.9-1.3-0.8,9.9-0.8,11l0,0.2c-0.5,2.3-1.3,4.9-3.2,6.4
					c0.9,7.3,2,14.5,3.4,21.7l0.8,0.1c11.9,1.6,23.9,3.7,36,2.6c6.5,0.1,10.8-4.4,13.5-9.9c-0.2-0.7-0.4-1.3-0.5-2
					c-8.3-5.1-14.6-15.3-10.8-25c0.2-0.4,0.7-0.4,0.9-0.2c0,0,0.1,0,0.1,0.1l-0.1,2.1c-0.3,4.1-0.3,8.3,1.9,12
					c9-2.1,14.6,5.5,18.4,12.5l2.7,0.4c10.4,1.5,20.3,3.4,25.5,13.9l0.7,1.5c7.1,15.2,13.8,30.9,17.7,47.3c2,8.7,2.7,17.7,5.5,26.2
					c6,15.8,14.4,30.6,19,47c2.8,5.9,10.8,50.3,2.9,50.6c-2.8-0.8-5.7-1.5-8.6-2c0.4,0.3,0.6,0.9,0.5,1.5c-1,7.1-1.1,14.3-1.1,21.5
					c0.5,17.4,0.1,54.8-26.2,48.8c-1.9-0.7-0.7-3.8-0.7-5.9c-0.1,0-0.3,0-0.5,0c-1.5,4.1-3.6,7.8-4.9,11.9
					c-1.1,3.5-1.9,7.3-3.5,10.7c-16.6,58.8-23.4,120.6-16.9,181.4c0.4,3.6,0.8,7.3,1.2,10.9c-0.1,2.3,2.6,11.7,0.2,12.4
					c-0.1,0.2-0.4,0.4-0.6,0.5c-1.5,1.6-3.9,1-5.8,1.2c-6.9,0.3-13.7,0.6-20.6,0.8c0.4,2.9,0.1,5.9-0.2,8.8c5,0,9.6,3.1,14,5.1
					c6.6,3.2,13,6.7,19.4,10.4c5.9,4.1,18.9,8,14.4,17.3c3.4,1.4-1.3,7-3.9,7.1c-16.6-0.1-33.1-3.8-49.3-7.1
					c-9.2-2.4-19.3-3.4-27.8-7.5c-2.4-1.1-1.9-5.4,0.7-5.9c-2-14.5,6-14.3,8.3-26.4c-1.3,0.2-2.8,0.1-4.1-0.2
					c-3,2.8-1.9-19.3-2.3-21.5c-0.1-22.7,1-45.5-1.4-68.1l-4.1,12.1c-9.6,28.3-19.1,56.6-26.6,85.5c-0.5,1.7-2.3,2-3.5,1.2
					c-4.9-0.1-9.9-0.6-14.7-1.4c-0.1,2.3-0.2,4.6-0.3,6.9c2.1,1.1,0.7,8.3,0.9,10.7c2.3,5.2-7,15.4-10,19.6
					c-5.4,7.5-10.8,18.1-21.2,18.5l-0.3,0c-7.8,0.2-15.7-0.3-23.4-1.4l-0.9-0.2c-2.2-0.4-4.6-0.9-5.9-2.9c-1.1-1.7-1-3.8,0.4-5.1
					c-1.7-6.3,5-10.1,8.8-14c7.1-6.8,13.5-14.3,19.1-22.4l0.3-0.8c1-2.4,2.3-5.1,4.2-6.3c1.8-2.9,3.4-6,5.1-9
					c-4.5-1.7-9-3.5-13.4-5.5c-0.9-0.4-1.2-1.5-1-2.4l0-0.1c8.6-44.5,18.9-88.8,26.9-133.4c5.1-41.1,7.2-82.8,18-123.1
					c-5.2-0.5-10.4-2-15.5-3.3c-4.1-0.9-6.2-3-5.4-7.3c0.3-3.9,1.1-7.7,1.5-11.5c-1.1-0.8-2.2-1.6-3.2-2.4c-1.9,1.4-3.9,2.8-5.9,4
					c-4.9,3.5-8.7,4.1-11.7-1.7c-8.7-13.8-17.2-27.8-25.1-42c-7.4-13.7-16.5-27.3-18.4-43.1C45.2,109,78.5,63.7,95.1,40.7
					c9.2-11.1,20.4-22.5,35-25.7c4.5-0.7,9.2-0.8,13.5-2.4c0.3-2.1,1.3-4,3.5-4.5c2.3-0.5,4.8-1.3,7.1-1.4c0.5-0.1,1.1-0.2,1.7-0.1
					C157.5,2.4,157.8-2.3,159.6-6.3z M70.4,564.8c0.4,0.2,0.8,0.4,1.2,0.5c0.5,0.1,1,0.1,1.6,0.2C72.2,565.3,71.3,565,70.4,564.8z
					 M122.2,524.5c-7.7,2.8-9.8-10.3-24.8-5c-5.9,10.9-13.5,20.8-22.2,29.6c-3.1,3.8-12.2,8.2-7.3,13.8l0.8,0.1
					c8.6,1.6,17.3,2.8,26,2.1c6.6-1.8,11.5-7.1,15.5-12.4c2.9-5.1,6.3-9.9,9.7-14.7c1.9-2.4,2.1-5.4,2.1-8.3
					C122.1,528,122.1,526.2,122.2,524.5z M208.2,518.1c-3.2-1.2-6.6-0.1-9.5,1.4c-5,2.3-16,5-20.6,1.4c-2.3,3.8-3.1,8-2.4,12.4
					l0,0.2c0,1.8,0.3,3.2,2.4,3.4l6.1,1.5c20.5,5.2,41.3,10.1,62.4,11.6c5.6-3.5,5.8-8.1-0.2-11.4l-1.5-0.9
					C233,530.4,220.9,523.3,208.2,518.1z M252.8,548c-0.1,0.1-0.1,0.2-0.2,0.3c0.1,0,0.2,0.1,0.2,0.2
					C252.9,548.3,252.9,548.2,252.8,548z M102.3,509.4c0.1,1.6-0.7,3.4-1.3,4.8c-0.3,0.8-0.7,2.1-1.2,3c12.9-3.8,16.8,7.3,21.4,5
					l0.1-0.1v0c-0.9-2.2,0.1-5.2,0.7-7.4C115.4,513.7,108.7,511.8,102.3,509.4z M204,506l-3.7,0.1c-5.8,0.2-11.5,0.3-17.3,0.3
					c0.6,4.1-0.6,11-3.3,14.2c0,0,0,0,0,0c7.6,1.1,14.8-2.3,21.6-5.3C201.5,512.2,202.8,509,204,506z M179.1,518.7
					c-0.2,0.4-0.5,0.9-0.7,1.3c0.1,0.1,0.2,0.2,0.3,0.3C178.7,519.7,178.9,519.2,179.1,518.7z M189.8,166c4.2,21.4,7.6,43,8.7,64.9
					l0,0.2c0.1,2.2,0.4,4.7-1,6.5c-1.5,1.9-3.9,2.2-6.2,2.5c-19,2.9-38.2,3.9-57.4,3.3c-7.1,35-11.4,70.5-14.1,106.1
					c-5.7,50.9-18.8,100.7-28.5,150.9c15.1,6.6,30.8,11.3,47.4,12c23.5-86.7,67.4-178.3,69.8-265c0.1-0.1,0.4-0.1,0.5,0.1
					c0.8,4.7,0.4,9.7,0.3,14.5c-0.6,14.7-2.3,29.4-4.7,44c-6.1,36.1-17.5,71-29.1,105.6c-0.4,1.6,0.2,3.3,0.2,4.9
					c2.4,26.5,2.7,53.1,3.5,79.7c-0.2,2.9,0.8,6.3-0.3,9c8.8-1.2,17.6-1.8,26.4-2.5l0.1,0c0.4-0.2,0.9-0.5,1.3-0.1
					c7.4-0.6,14.9-1.1,22.4-1.6c-10.6-75.6-3.3-154.4,25.3-225.5c-1.8-1.7-1-5.4-1.4-7.7c-0.4-9.4-0.4-19.1,1.5-28.3l-0.5,0
					c-5.7,0.3-30.7,1.3-31.4-2.9c-1-7.2,1.3-14.3,1.8-21.5c0.8-16.1,0.6-32.4,0.5-48.5c-5,0.7-9.7-0.2-14.6-0.4
					C203.4,166.1,196.6,166.2,189.8,166z M101.5,509.1c-0.1,0.6-0.3,1.1-0.4,1.7c0.2-0.5,0.5-1,0.8-1.4l0.1-0.1L101.5,509.1z
					 M182.5,506.5l-0.4,0l0,0l0,0.2l0,0c0.1,0.2,0.1,0.4,0,0.5c0,0.7,0,1.4-0.1,2.2C182.2,508.4,182.3,507.4,182.5,506.5z
					 M177.4,506.2l0,0.4l0,0c0.5,0,1,0,1.6,0c0.3,0,0.6-0.1,0.8-0.1C179,506.4,178.2,506.4,177.4,506.2z M269.8,209.2
					c-0.3,0.3-0.5,0.5-0.8,0.6c0,6.8-1.4,13.6-5.2,19.5c-1.6,2.1-2.5,4.5-3.2,6.9c-4,11.3-4.7,23.5-3.3,35.4
					c3.9-5.8,5.5-12.7,6.6-19.4c0.1-0.3,0.6-0.3,0.7,0c1.3,7.3-1,14.4-3.7,21.1c-1.7,1.2-1.3,4.4-1.5,6.3
					c29,4.2,18.9-51.4,22.6-68.6c0.1-0.5,0.5-0.8,0.9-1C278.6,209.3,274.2,209.3,269.8,209.2z M133.1,243.4c0,0.2,0.1,0.4,0.1,0.5
					c0.1-0.2,0.1-0.4,0.2-0.5C133.3,243.4,133.2,243.4,133.1,243.4z M152.8,7.9L152.2,8c-5.4,1.4-7.1,1.2-7.4,7.7
					c-1.3,8.8-6.2,16.4-8.4,24.9c-0.9,3,0.1,8.5,4.2,7.7c1.3-0.4,2.4,1.4,1.4,2.4c-3,2.8-5.9,5.8-8.9,8.7
					c11.8,39.7,27.1,78.4,45.7,115.4c0.7,1.5-1.5,2.8-2.2,1.3c-18.5-37.1-33.9-75.8-45.9-115.5l-0.4-1.2c-0.5-1.5,6.2-6.7,7.5-8.4
					c-12.3-5.9,4.9-26.7,5.4-36.7c-3.5,1.6-7.5,1-11.3,1.6c-7.2,1.3-13.4,5.4-19,9.8c-22.7,20-37.2,47.7-51.6,73.8
					c-9.9,17-14.6,37.8-4.7,56c11.5,23.2,24.8,45.6,38.9,67.3c1.5,2,3.9-0.3,5.6-1.1c9.4-5.6,17.5-13.3,23.8-22.2
					c-15.2-18.6-28.4-38.9-37.7-61l-0.1-0.3c-2.1-4.2-3.8-9.3-0.3-13.3c12.4-15.9,23.4-32.7,33.8-50c0.1-0.2,0.3,0,0.3,0.2
					c-1.1,2.4-2.2,4.8-3.4,7.2c2.4,35.1,2,70.8,3,106.1c2.8,3.6,5.6,7.2,8.5,10.8c9.4-6.5,20.5-10.7,31.9-12l0.7-0.1
					c4.8-0.5,12.8-1.4,13.5,4.8c-0.8,7.7-16.7,3.4-21.8,7.8c8.4,3.4,17.9,4.3,25.6,9.4c2.5,1.4,7.3,6,2.6,7.8
					c-2.1,0.2-4.2-0.6-6.2-0.8c2.3,0.8,4.4,2.1,5.8,4.2c1,1.4,1.7,4.4-0.6,5c-5.3,0.2-10.6-1.6-15.8-2.4l0.5,0.2
					c3.8,1.6,9.8,4.4,4.6,8.5c-5.1,2.7-11.4-1.9-16.5-3.1c-13.8-3.2-24,5.6-38.2-3.9c-0.4,3.2-1,6.3-1.2,9.5l0,0.2
					c-0.5,2.9-0.1,4,3.1,4.5c3.8,1.1,7.8,1.5,11.7,1.7c19,1,38.2,0.3,57-2.1c2.7-0.7,9.1,0,10.2-3c-2.1-76.9-34.2-149.3-43-225.2
					C152.5,9.2,152.5,8.5,152.8,7.9z M206.4,14.5c-1.5,0.1-2.9,0.4-4.4,0.5c0.8,1.8,5.2,4.3,4.8,5.2c0.3,0.2,0.6,0.5,1,0.7
					c-0.5-1.6-0.9-3.2-1.4-4.8c16.8,40.8,19.1,89.1,21.3,133.6c0.7,22.4,1.1,44.9,0,67.4c-0.6,6-2.2,12-1.8,18
					c9.8,1.4,19.8,1.5,29.7,0.5c0.3-0.8,0.6-1.5,1-2.3c14.8-18,6.9-40.6-0.2-60.1c-4.3,0.2-8.6-0.1-12.9,0c1.3,4.1,1.7,8.5,2.4,12.7
					c0.5,3,1.1,6,1.8,9l0.2,0.8c0.3,1.1,0.6,2.3,0.2,3.4c-0.4,1.1-1.7,1.5-2.6,0.7c-1.6-1.8-1.4-4.4-1.9-6.7l-0.1-0.7
					c-0.9-6.4-2-13-0.4-19.3c-1.5-0.3-5.8,0.9-6-1.2c0.1-3.4-2.4-10.9,0.3-13.1c1.7-1.3,4.5-0.9,6.4-0.9c2.2-0.1,4.5-0.2,6.7-0.2
					c-18-43.4-13-56.7-11.1-99.9l0.1-1.3c0-0.3,0.5-0.4,0.5-0.1c2.7,17.7-0.9,35.6,0.8,53.3c3.1,33.7,24.4,62.7,28,96.2
					c7.7-0.9,15.5,0.2,23,2.1c0.2-1.4,0.3-2.7,0.4-4.1c1.4-25-7.4-49.4-17.6-71.8c-6.1-11.9-9.9-24.6-11.5-38
					c-3.1-17.3-10-33.7-16.9-49.8c-4.4-12-13.8-14.9-25.5-16.3c3.9,6.5,7.9,13.1,11.8,19.7c0.9,2-1.8,3.4-3,4.6
					c14.4,7.8,6,32,6.3,45.6c-1.1,12.5-1.5,25-3.4,37.4c-0.1,0.9-1.5,0.6-1.5-0.2c0.2-18.5,2.4-37,3.4-55.5l0.1-1.3
					c0.8-8.8,1.5-21.4-9-23.8c-1.4-0.2-1.5-2.3-0.4-3c1.5-0.8,2.9-1.9,4-3.1c-4-6.8-8-13.5-12-20.3l-0.2-0.3
					C213.9,23,211.3,17.4,206.4,14.5z M172.1,191.3c-1.2-3.4-12.5-1.2-15.5-0.8c-11.1,2.1-22.3,7-30.8,14.6
					c-0.5,0.5-1.1,0.5-1.6,0.2c-3.8,4.8-8.2,9.2-13,13.1c0.9,0.7,1.8,1.4,2.7,2c0.4,0,0.8,0.3,1,0.7c13.2,9.6,22.9,2.1,36.6,3.8
					c5.1,1,9.8,4.3,15.1,4.4c3.9-0.9,0.5-2.5-1.3-3.1c-4.1-2-8.3-3.7-12.5-5.5l-3.3-1.4c-1.6-0.7-1.1-3.2,0.8-2.7
					c3.2,0.8,6.4,1.5,9.7,2.2c6.2,1.3,12.6,2.9,18.8,3.5c-1.4-3.9-16.2-8.1-20.5-9.6c-1.6-0.8-6.3-0.6-5.7-3.1
					c0.4-2.3,5.4,0.3,7,0.5c6.7,1.7,13.6,2.7,20.4,3.8c-7.3-7.4-18.7-8-28.1-11.5l-0.2,0c-1.7-0.4-4-1.1-2.7-3
					C154,192.2,173,195.8,172.1,191.3z M158.3,151.8c3.4-2.8,5.3,3,5,5.6c0.2,2.2,0.3,4.5,0.5,6.7c-0.2,1.7,1.6,8.1-0.8,8.1
					c-10.8-0.6-21.7-0.4-32.5-1.1c0,2.2-0.1,4.4,0,6.6c-0.1,2.7,0.9,5.5,0.3,8.2c-0.3,1.2-2,1.4-2.7,0.4c-2-4.7-0.6-10.7,0.8-15.4
					c-5.3-1-6-6-4.6-10.4l0-0.2c-0.1-1.4-0.1-2.8,0.5-4c1.6-1.9,5-0.7,7.3-0.8c6.9-0.7,14-0.9,20.8-2.2
					C154.6,152.8,156.4,151.8,158.3,151.8z M115.2,86.7c-5.4,10.3-11.6,20.1-18.2,29.6c-1.4,2-2.9,4-4.3,6l-0.3,0.3
					c-3,3.7-6,6.9-3.2,11.8c7.3,17.7,17.1,34.4,28.4,49.9C116.9,151.8,116.2,119.2,115.2,86.7z M250.8,158.2
					c-13.6,2.8-13.8-2.5-11.5,12.6c5.4,0,10.9-0.1,16.3,0C254,166.6,252.4,162.4,250.8,158.2z M159.8,153.9
					c-7.1,2.5-14.6,2.1-22,2.4c0,1.6-7.5,0.1-9,0.3l-0.6,0c-1.2-0.1-2.7-0.1-2.7,1.4c0.4,2.6-1.1,5.4-0.2,7.9
					c1.2,3.4,6.4,3.1,9.3,3.1c4.7,0.1,9.4,0.2,14.1,0.3c4.2,0.1,8.5,0.3,12.7,0.4c-0.4-3-0.5-6.1-0.7-9.1
					C160.5,158.5,160.9,155.9,159.8,153.9z M189.6,164.9c0,0,0,0.1,0,0.1c0.1,0,0.2,0,0.3-0.1C189.8,164.9,189.7,164.9,189.6,164.9z
					"/>
			</g>
			<g id="Head" transform="translate(95.945717, 42.661805)">
				<g id="head_x2F_Long">
					<path id="_xD83C__xDFA8_-Background_00000126295113400542151430000015577338273671606703_" class="st0" d="M102.6,64
						c-0.9-14.7-5.7-31.5-19.8-38.7c-31.1-12.5-72,18.9-74.2,51c-0.8,11,5.3,23,16.5,26c2.5,3.3,6.2,5.3,9.9,7
						C79.1,132.1,107.6,113.6,102.6,64L102.6,64z"/>
					<path id="_xD83D__xDD8D_-Ink_00000062163406125860675220000011996642572097015976_" class="st1" d="M112.6,54.8
						c-1.6-4.3-3.2-8.6-4.9-12.9c-1.7-4.1-3.2-8.4-5.3-12.3C89.9,6.1,67.1,6.1,55.4,9.2c-6.1-2.6-17.5-1.9-23.9,0.5
						C21.2,13.5,8.7,28.6,4.4,35.3C-5,50.3-10.9,70.2-4.7,87.4c0.8,2.3,1.9,4.3,3,6.4c-0.7,1-1.6,2-2.5,2.9
						c-2.8,2.8-5.6,5.5-8.1,8.6c-2.4,3.1-4.4,6.4-5.9,10.1c-2.8,6.9-2.9,14.7,0.8,21.3c3.2,5.7,9,10,15.4,10.4c0.3,0,0.7,0.1,1,0.1
						c0.9,1.4,1.9,2.7,3.1,3.8c3.6,3.5,12.3,5.2,17.3,5.3c0.3,0.2,0.5,0.4,0.8,0.6c3,2.4,6.2,4.8,9.7,6.5c2.4,1.1,5.5,2.1,7.9,1.3
						c1.1,0.7,2.9,0.6,4.1,0c1.8-1,3.3-2.8,4.2-4.6c2.2-4.5,1.7-9.4,1.1-14.2c-0.6-5.3-1.2-10.6-1.8-15.9c-0.5-4.1-1-8.3-2.2-12.3
						c-0.7-2.1-1.5-4-2.6-5.9c0-0.2,0-0.3,0-0.5c-0.4-1.2-1.1-1.8-2-2.6c-0.1-0.1-0.2-0.2-0.3-0.3c-0.4-0.5-0.9-1-1.4-1.4
						c-0.2-0.2-0.4-0.4-0.6-0.6c-1.6-1.7-3.1-3.4-4.5-5.3c-1.3-1.8-2.5-3.7-3.6-5.7c-1.1-2-1.9-4.2-3-6.1c-0.1-0.2-0.3-0.2-0.5-0.1
						c-0.4,0.4-0.6,0.8-0.5,1.2l-0.2,0c-0.1-0.6-0.7-1.2-1.5-1c-1.2,0.2-2.2,0.3-3.2-0.1c0.2-1.2,0.4-2.4,0.5-3.6
						c0.3-2.2,0.6-4.5,0.8-6.7c0.6,0.1,1.2,0.3,1.7,0.6c0.8,0.4,1.6,0.9,2.2,1.5c0.6,0.6,1.1,1.4,1.9,1.8c0.9,0.5,2-0.3,1.7-1.3
						c-0.5-2.1-3.6-3.3-5.5-3.6c-0.6-0.1-1.3-0.2-2-0.2c0.1-1.4,0.3-2.9,0.4-4.3c0.1-0.7,0.1-1.4,0.1-2.1c1.5-0.4,3-0.6,4.6-0.4
						c0.5,0.4,1,0.8,1.5,1.2c1.5,1.3,3.1,2.6,4.6,3.9c0.1,0.1,0.3,0.2,0.4,0.4c0.9,0.8,2,0,1.9-1.1c-1.2-9,4.3-16.1,10.7-21.7
						c7.2-6.1,20.2-6.9,28.7-17.5c3.9,0.8,12.7,3.2,16.3,8.9c5.1,8,4.4,15.3,4.8,24.4c0.4,9.1,1.4,18.7-0.7,27.7
						c-1.9,8.3-7.1,15.4-15.2,18.7c-0.2,0.1-0.4,0.2-0.6,0.2c-4.2,1.6-8.7,2-13.1,1.2c-4.8-0.9-8.9-3.1-12.9-5.9
						c-0.2-0.2-0.6,0.2-0.4,0.4c5.3,7,15.8,9.4,24,7.5c0.4-0.1,0.8-0.2,1.2-0.3c-1.9,5.3-1.5,11.2,0.9,16.3c1.5,3.1,3.7,5.8,6.4,7.9
						c3,2.3,6.7,4.2,8.7,7.5c1.9,3,1.3,6.4-1.9,8.1c-0.8,0.4-1.1,1.9-0.3,2.5c0.3,0.2,0.6,0.5,0.9,0.7c1.8,1.4,6.8,3.9,7.6,4
						c7.1,0.8,12-4.4,15-10.6c3.6-7.3,2.7-16.1-1.3-23c-3.2-5.5-9.5-11-7-18c0.9-2.5,2.7-4.6,4.5-6.6c2-2.2,4.2-4.3,6.1-6.5
						c1.9-2.3,3.6-4.7,4.6-7.6c1.4-4.1,0.7-8.6-0.3-12.8C118.6,72.2,115.7,63.4,112.6,54.8z"/>
				</g>
				<g id="face_x2F_Smile" transform="translate(37.760814, 44.083865)">
					<path id="_xD83D__xDD8D_-Ink_00000161602501310531599560000008145885527872458941_" class="st1" d="M34.8,57.1
						c-1.6-0.6-3-1.7-4.1-3.1c-0.4-0.5-0.5-1-0.4-1.5c0.1-0.5,0.4-1,0.8-1.3c0.4-0.3,1-0.5,1.5-0.4c0.4,0.1,0.9,0.3,1.2,0.8l0.1,0.1
						c0.6,0.8,1.4,1.5,2.3,2c0.9,0.4,1.9,0.6,2.9,0.5c2-0.2,3.3-1.3,4.7-2.7c0.2-0.2,0.4-0.4,0.5-0.6c0.1-0.2,0.3-0.3,0.4-0.3
						c0.2-0.1,0.4-0.1,0.6,0c0.2,0.1,0.4,0.2,0.5,0.4c0.1,0.2,0.2,0.4,0.2,0.6c-0.1,1.5-0.9,2.8-2,3.8c-1.2,1.2-2.9,2-4.4,2.2
						C38.1,58,36.4,57.7,34.8,57.1L34.8,57.1z M40.6,34.2c1.8,1.1,4.5,3.6,2.6,6.3c-2.3,2.4-5.5-0.3-7.2-1.6c-1.5-1-3.2,1.5-1.8,2.6
						c11.6,8.6,16.4-7.1,7.2-8.6C40.5,32.8,40.1,33.9,40.6,34.2z M19.7,24.2c0.2-2.5,3.9-3,4.3-0.6c0.3,2.2-0.1,4.2-1,6.1
						c-0.9,1.9-3.3,1-3.5-0.7C19.3,26.8,19.6,25.7,19.7,24.2z M48.2,23.1c0.5-0.7,1.3-1.1,2.2-0.9c2.8,0.8,2,4.8,1,6.8
						c-0.5,1.1-2.3,1.3-3.1,0.4c-1.3-1.5-1.9-4.5-0.3-6C48.1,23.3,48.2,23.2,48.2,23.1z M22.9,13.5l0.4-0.1c1.4-0.2,3.1-0.5,4.1,0.6
						c0.5,0.6,0.7,1.7,0,2.2c-1.2,1-2.6,0.6-4,0.7c-1.2,0.1-2.4,0.3-3.5,0.6c-2.6,0.7-4.6,2.1-6.8,3.5c-0.3,0.2-0.6-0.2-0.4-0.4
						c1.3-2.5,3.7-4.5,6.1-5.7C20.1,14.3,21.5,13.7,22.9,13.5z M45.6,12.4l0.3,0.1c3.7,0.8,8.5,2.3,10.3,6c0.1,0.5,0,0.6-0.1,0.7
						l0,0c0,0.1-0.1,0.1-0.3,0.2c-0.1,0-0.1,0-0.2,0c-0.8-0.2-1.4-0.5-2.1-0.8L53,18.2c-0.8-0.4-1.6-0.7-2.4-1
						c-1.8-0.6-3.6-1-5.4-1.2c-0.4,0-0.8-0.2-1.1-0.4c-0.3-0.2-0.5-0.5-0.6-0.9c-0.1-0.5-0.1-0.9,0.2-1.4c0.2-0.4,0.5-0.6,0.9-0.7
						C44.8,12.3,45.2,12.3,45.6,12.4z"/>
				</g>
				<g id="facial-hair_x2F__x2A_-None" transform="translate(29.211196, 80.109389)">
				</g>
				<g id="accessories_x2F__x2A_-None" transform="translate(11.162002, 57.119417)">
				</g>
			</g>
		</g>
	</g>
</g>
</svg>
