<?xml version="1.0" encoding="utf-8"?>
<!-- Generator: Adobe Illustrator 27.9.0, SVG Export Plug-In . SVG Version: 6.00 Build 0)  -->
<svg version="1.1" id="Capa_1" xmlns="http://www.w3.org/2000/svg" xmlns:xlink="http://www.w3.org/1999/xlink" x="0px" y="0px"
	 viewBox="0 0 91 91" style="enable-background:new 0 0 91 91;" xml:space="preserve">
<style type="text/css">
	.st0{fill:#101011;}
</style>
<path class="st0" d="M69.9,48.9c-0.4-0.4-1-0.8-1.5-1c-0.6-0.2-1.2-0.4-1.8-0.4c-0.6,0-1.2,0.1-1.8,0.4c-0.6,0.2-1.1,0.6-1.5,1
	l-7.6,7.6c-3.5-1-10.1-3.4-14.2-7.6s-6.5-10.7-7.6-14.2l7.6-7.6c0.4-0.4,0.8-1,1-1.5c0.2-0.6,0.4-1.2,0.4-1.8c0-0.6-0.1-1.2-0.4-1.8
	c-0.2-0.6-0.6-1.1-1-1.5l-19-19c-0.4-0.4-1-0.8-1.5-1C20.3,0.1,19.6,0,19,0c-0.6,0-1.2,0.1-1.8,0.4c-0.6,0.2-1.1,0.6-1.5,1L2.8,14.3
	C1,16.1,0,18.6,0,21.1c0.1,6.8,1.9,30.3,20.4,48.8c18.5,18.5,42,20.3,48.8,20.4h0.1c2.5,0,4.9-1,6.7-2.8l12.9-12.9
	c0.4-0.4,0.8-1,1-1.5c0.2-0.6,0.4-1.2,0.4-1.8s-0.1-1.2-0.4-1.8c-0.2-0.6-0.6-1.1-1-1.5L69.9,48.9z M69.3,80.8
	c-5.9-0.1-26.2-1.7-42.1-17.6C11.1,47.2,9.6,26.8,9.5,21l9.5-9.5l12.3,12.3l-6.1,6.1c-0.6,0.6-1,1.2-1.2,2c-0.2,0.8-0.3,1.6-0.1,2.3
	c0.1,0.5,2.9,13.5,10.8,21.4S55.5,66.3,56,66.4c0.8,0.2,1.6,0.1,2.3-0.1c0.8-0.2,1.4-0.6,2-1.2l6.1-6.1l12.3,12.3L69.3,80.8z"/>
</svg>
