<?xml version="1.0" encoding="utf-8"?>
<!-- Generator: Adobe Illustrator 27.9.0, SVG Export Plug-In . SVG Version: 6.00 Build 0)  -->
<svg version="1.1" id="Capa_1" xmlns="http://www.w3.org/2000/svg" xmlns:xlink="http://www.w3.org/1999/xlink" x="0px" y="0px"
	 viewBox="0 0 101 108" style="enable-background:new 0 0 101 108;" xml:space="preserve">
<style type="text/css">
	.st0{fill:#101011;}
</style>
<path class="st0" d="M50.5,63.2c9.4,0,17-8.2,17-18.2s-7.6-18.2-17-18.2s-17,8.2-17,18.2S41.1,63.2,50.5,63.2z M42.3,45
	c0-4.9,3.7-8.8,8.2-8.8s8.2,3.9,8.2,8.8s-3.7,8.8-8.2,8.8S42.3,49.9,42.3,45z"/>
<path class="st0" d="M50.5,7.2C31.2,7.2,15.4,24,15.4,44.6c-0.1,30.3,31.1,54.3,32.4,55.3c0.8,0.6,1.7,0.9,2.7,0.9s1.9-0.3,2.7-0.9
	c1.3-1,32.6-25,32.4-55.3C85.6,24,69.8,7.2,50.5,7.2z M50.5,16.9c14.3,0,26,12.5,26,27.8c0.1,20.2-18,38.2-26,45.1
	c-7.9-6.9-26.1-24.9-26-45.1C24.5,29.4,36.2,16.9,50.5,16.9z"/>
</svg>
